<?xml version="1.0" standalone="no"?>
<!DOCTYPE svg PUBLIC "-//W3C//DTD SVG 20010904//EN"
 "http://www.w3.org/TR/2001/REC-SVG-20010904/DTD/svg10.dtd">
<svg version="1.0" xmlns="http://www.w3.org/2000/svg"
 width="1080.000000pt" height="1080.000000pt" viewBox="0 0 1080.000000 1080.000000"
 preserveAspectRatio="xMidYMid meet">

<g transform="translate(0.000000,1080.000000) scale(0.100000,-0.100000)"
fill="#000000" stroke="none">
<path d="M5540 7150 c-168 -24 -313 -70 -468 -149 -83 -43 -117 -50 -147 -28
-14 11 -17 22 -12 56 l5 41 -40 -22 c-147 -83 -218 -323 -218 -740 0 -172 22
-531 40 -658 33 -228 113 -386 262 -517 157 -138 355 -215 496 -193 271 43
521 260 606 525 80 252 87 865 11 1057 -10 24 46 50 125 58 l65 6 -60 60 c-60
60 -126 94 -182 94 -31 0 -30 25 2 46 33 22 152 61 211 69 79 12 84 20 28 48
-88 45 -159 60 -251 54 -46 -2 -83 -1 -83 3 0 13 73 70 98 76 12 4 22 9 22 13
0 14 -89 63 -150 82 -76 23 -258 33 -360 19z m-320 -742 c152 -65 187 -73 335
-73 138 0 193 12 282 60 46 25 53 24 53 -14 0 -42 48 -226 72 -278 12 -26 42
-66 65 -89 37 -35 46 -51 57 -105 11 -57 11 -70 -4 -115 -48 -139 -100 -215
-179 -262 -39 -23 -57 -27 -122 -27 -71 0 -80 3 -135 38 -111 71 -157 88 -236
88 -69 0 -80 -3 -188 -58 l-115 -58 -92 0 c-91 0 -92 0 -128 35 -20 19 -47 53
-60 75 -33 55 -105 240 -105 267 0 33 27 73 109 161 39 43 76 90 82 105 6 15
17 70 25 122 30 193 80 216 284 128z m323 -914 c28 -9 70 -37 100 -64 44 -41
51 -52 50 -83 -1 -45 -32 -90 -77 -111 -42 -20 -64 -13 -125 38 -55 46 -86 46
-144 2 -85 -65 -106 -67 -161 -17 -58 54 -52 107 18 169 99 87 213 109 339 66z"/>
<path d="M4849 4725 c-14 -7 -162 -66 -330 -131 -346 -132 -339 -129 -437
-197 -126 -86 -253 -240 -307 -370 l-16 -39 118 -117 c270 -268 573 -445 951
-555 l52 -15 0 720 c0 395 -1 719 -2 719 -2 -1 -15 -7 -29 -15z"/>
<path d="M5980 4010 l0 -690 28 6 c73 18 210 72 331 130 227 109 437 260 614
442 l88 90 -16 39 c-65 155 -217 325 -367 411 -57 32 -533 218 -655 256 l-23
7 0 -691z"/>
</g>
</svg>
