<?xml version="1.0" standalone="no"?>
<!DOCTYPE svg PUBLIC "-//W3C//DTD SVG 20010904//EN"
 "http://www.w3.org/TR/2001/REC-SVG-20010904/DTD/svg10.dtd">
<svg version="1.0" xmlns="http://www.w3.org/2000/svg"
 width="1080.000000pt" height="1080.000000pt" viewBox="0 0 1080.000000 1080.000000"
 preserveAspectRatio="xMidYMid meet">

<g transform="translate(0.000000,1080.000000) scale(0.100000,-0.100000)"
fill="#000000" stroke="none">
<path d="M5245 7694 c18 -43 32 -110 25 -118 -5 -5 -45 -4 -93 2 -222 25 -408
-75 -503 -271 -63 -132 -68 -283 -20 -617 14 -96 26 -211 27 -255 l0 -80 24
95 c13 52 31 132 40 177 29 152 126 486 158 547 39 72 90 116 145 123 45 6 99
-16 211 -86 85 -54 134 -61 203 -28 29 14 80 46 113 71 70 54 142 81 190 72
57 -11 81 -39 111 -129 14 -45 55 -154 89 -242 81 -209 113 -306 134 -412 l17
-88 15 85 c9 57 14 156 13 300 -1 197 -3 223 -26 310 -48 178 -119 294 -230
376 -110 82 -213 117 -453 153 -71 11 -145 24 -164 27 -31 7 -34 5 -26 -12z"/>
<path d="M5263 6303 c-198 -104 -204 -107 -280 -111 -91 -5 -152 14 -233 74
-33 24 -60 41 -60 36 0 -33 33 -217 46 -257 83 -252 280 -439 544 -516 122
-36 252 -16 400 62 189 98 316 249 379 450 20 63 65 288 59 294 -2 2 -32 -19
-68 -46 -129 -98 -249 -137 -334 -109 -20 6 -77 41 -127 77 -157 112 -192 117
-326 46z m220 -204 c29 -8 232 -134 267 -166 3 -3 -11 -18 -30 -34 -42 -35
-197 -115 -206 -106 -4 4 -11 30 -15 58 -11 70 -21 79 -89 79 -65 0 -75 -7
-85 -65 -16 -85 -33 -92 -123 -46 -58 30 -142 95 -142 111 0 12 184 134 240
159 50 23 124 27 183 10z"/>
<path d="M4845 5310 c-16 -10 -156 -66 -310 -125 -341 -129 -345 -131 -419
-179 -138 -88 -247 -209 -317 -349 l-41 -80 109 -109 c343 -345 762 -557 1231
-622 147 -21 455 -21 600 -1 307 43 617 157 872 322 146 95 322 243 416 349
l55 63 -36 72 c-50 100 -89 154 -164 230 -70 69 -153 130 -236 171 -27 14
-176 71 -330 128 -154 56 -290 108 -303 116 -21 14 -27 12 -80 -24 -223 -152
-465 -188 -710 -106 -83 27 -192 87 -246 135 -39 33 -50 34 -91 9z"/>
</g>
</svg>
