<?xml version="1.0" standalone="no"?>
<!DOCTYPE svg PUBLIC "-//W3C//DTD SVG 20010904//EN"
 "http://www.w3.org/TR/2001/REC-SVG-20010904/DTD/svg10.dtd">
<svg version="1.0" xmlns="http://www.w3.org/2000/svg"
 width="1080.000000pt" height="1080.000000pt" viewBox="0 0 1080.000000 1080.000000"
 preserveAspectRatio="xMidYMid meet">

<g transform="translate(0.000000,1080.000000) scale(0.100000,-0.100000)"
fill="#000000" stroke="none">
<path d="M5228 6950 c-97 -17 -161 -64 -372 -270 -286 -280 -356 -374 -364
-490 -4 -59 13 -100 87 -217 44 -69 52 -137 23 -185 -23 -37 -73 -76 -164
-127 -99 -56 -151 -141 -151 -251 0 -87 21 -126 133 -245 75 -80 92 -104 106
-151 22 -76 9 -144 -57 -292 -29 -64 -58 -139 -65 -167 -29 -105 -8 -194 56
-248 18 -15 31 -29 29 -31 -2 -1 -20 -9 -39 -16 -77 -31 -211 -132 -276 -208
-60 -70 -164 -252 -164 -287 0 -18 156 -163 258 -240 504 -378 1186 -516 1801
-364 367 91 705 277 967 531 l62 60 -24 60 c-70 179 -211 337 -378 424 -39 20
-72 38 -74 39 -1 1 15 20 37 43 81 85 77 210 -14 392 -51 101 -79 203 -72 260
8 69 27 100 123 203 103 109 116 132 122 218 8 115 -35 200 -131 260 -172 106
-197 132 -197 209 0 35 9 60 40 110 77 126 93 167 87 222 -12 102 -114 232
-262 337 -67 48 -91 72 -147 156 -82 119 -106 145 -182 197 -79 55 -150 78
-233 78 -77 -1 -128 -16 -177 -54 -19 -14 -40 -26 -46 -26 -7 0 -44 16 -84 35
-78 38 -171 51 -258 35z m855 -1020 c28 -33 54 -96 88 -215 21 -71 24 -76 30
-49 4 16 10 78 14 137 7 101 9 109 31 119 17 8 27 8 39 -2 71 -59 16 -390 -66
-390 -12 0 -21 -9 -25 -27 -42 -196 -160 -405 -284 -503 l-40 -32 0 -97 0 -98
-62 -14 c-99 -22 -403 -17 -493 8 l-70 19 -3 90 -3 90 -70 69 c-126 124 -209
264 -248 417 -16 61 -22 72 -48 83 -50 21 -83 119 -86 255 -1 78 19 140 46
140 40 0 47 -22 59 -174 l11 -149 32 135 c32 139 58 201 89 206 25 5 45 -15
50 -52 3 -17 8 -48 11 -68 l6 -38 417 0 c229 0 426 3 438 6 15 4 23 19 32 62
21 102 58 128 105 72z"/>
</g>
</svg>
