<?xml version="1.0" standalone="no"?>
<!DOCTYPE svg PUBLIC "-//W3C//DTD SVG 20010904//EN"
 "http://www.w3.org/TR/2001/REC-SVG-20010904/DTD/svg10.dtd">
<svg version="1.0" xmlns="http://www.w3.org/2000/svg"
 width="1080.000000pt" height="1080.000000pt" viewBox="0 0 1080.000000 1080.000000"
 preserveAspectRatio="xMidYMid meet">

<g transform="translate(0.000000,1080.000000) scale(0.100000,-0.100000)"
fill="#000000" stroke="none">
<path d="M5235 7549 c-194 -25 -425 -121 -586 -243 -427 -323 -602 -881 -435
-1381 68 -202 160 -351 310 -500 174 -173 387 -288 636 -341 118 -25 362 -25
480 0 455 98 812 417 949 850 117 367 60 754 -159 1082 -67 100 -222 254 -324
323 -259 175 -566 248 -871 210z"/>
<path d="M4290 4869 c-128 -14 -263 -53 -385 -114 -327 -161 -552 -444 -637
-805 -17 -71 -21 -131 -25 -372 l-5 -287 25 -25 26 -26 2111 0 2111 0 24 25
25 24 0 243 c0 275 -13 389 -60 528 -61 185 -150 330 -285 465 -201 202 -441
316 -724 345 -127 12 -2077 11 -2201 -1z"/>
</g>
</svg>
