<?xml version="1.0" standalone="no"?>
<!DOCTYPE svg PUBLIC "-//W3C//DTD SVG 20010904//EN"
 "http://www.w3.org/TR/2001/REC-SVG-20010904/DTD/svg10.dtd">
<svg version="1.0" xmlns="http://www.w3.org/2000/svg"
 width="1080.000000pt" height="1080.000000pt" viewBox="0 0 1080.000000 1080.000000"
 preserveAspectRatio="xMidYMid meet">

<g transform="translate(0.000000,1080.000000) scale(0.100000,-0.100000)"
fill="#000000" stroke="none">
<path d="M5332 7624 c-74 -20 -133 -57 -190 -118 -44 -49 -53 -54 -104 -60
-142 -18 -395 -197 -533 -376 -96 -125 -155 -289 -155 -429 1 -100 10 -139 77
-305 112 -282 83 -365 -177 -500 -216 -113 -267 -177 -258 -326 7 -121 58
-193 174 -246 92 -42 118 -73 111 -136 -8 -92 -89 -162 -244 -212 -81 -27
-130 -68 -163 -138 -36 -76 -46 -148 -30 -224 l12 -58 28 60 c84 185 234 338
415 420 31 14 192 69 358 121 305 95 345 113 385 170 35 51 42 92 42 257 l0
161 -76 75 c-125 124 -215 283 -245 431 -10 51 -14 58 -40 63 -34 6 -53 40
-74 128 -26 112 -16 238 21 252 9 3 24 1 35 -4 16 -9 19 -7 19 15 0 25 1 25
22 11 63 -44 152 0 245 120 32 42 67 87 78 101 l20 25 33 -51 c72 -111 161
-165 347 -211 145 -37 207 -64 255 -112 65 -65 73 -117 35 -234 -28 -87 -32
-150 -10 -181 8 -12 41 -38 73 -57 117 -71 111 -158 -23 -321 -68 -82 -85
-118 -85 -180 0 -56 22 -101 108 -220 94 -131 105 -160 100 -265 -5 -106 -37
-180 -104 -239 -25 -22 -41 -42 -35 -45 5 -3 32 -2 59 4 201 38 321 218 291
437 -11 79 -37 147 -88 232 -53 87 -60 136 -32 219 25 72 56 125 116 197 23
28 47 60 54 72 18 36 13 100 -15 165 -35 82 -29 113 39 229 132 224 136 313
30 579 -169 424 -350 625 -628 695 -109 28 -194 31 -273 9z"/>
</g>
</svg>
